<svg xmlns="http://www.w3.org/2000/svg" xmlns:xlink="http://www.w3.org/1999/xlink" version="1.1" x="0px" y="0px" viewBox="0 0 100 125" style="enable-background:new 0 0 100 100;" xml:space="preserve"><path d="M26.4,90.1L26.4,90.1c0-0.1-0.6-7.6-10.1-7.6c-9.6,0-10.1,7.6-10.1,7.6v2.2c0,0.6,0.5,1.1,1.1,1.1h18  c0.6,0,1.1-0.5,1.1-1.1L26.4,90.1z"/><path d="M16.1,80.7c2.8,0,5-2.5,5-5.5c0-3.1-2.3-5.5-5-5.5c-2.8,0-5,2.5-5,5.5C11.1,78.2,13.3,80.7,16.1,80.7z"/><path d="M93.3,90.1L93.3,90.1c0-0.1-0.6-7.6-10.1-7.6c-9.6,0-10.1,7.6-10.1,7.6v2.2c0,0.6,0.5,1.1,1.1,1.1h18  c0.6,0,1.1-0.5,1.1-1.1L93.3,90.1z"/><path d="M82.9,80.7c2.8,0,5-2.5,5-5.5c0-3.1-2.3-5.5-5-5.5c-2.8,0-5,2.5-5,5.5C77.9,78.2,80.2,80.7,82.9,80.7z"/><path d="M59.4,21.5L59.4,21.5c0-0.1-0.6-7.6-10.1-7.6c-9.6,0-10.1,7.6-10.1,7.6v2.2c0,0.6,0.5,1.1,1.1,1.1h18  c0.6,0,1.1-0.5,1.1-1.1L59.4,21.5z"/><path d="M49,12.1c2.8,0,5-2.5,5-5.5S51.8,1,49,1c-2.8,0-5,2.5-5,5.5S46.3,12.1,49,12.1z"/><path d="M33.9,15c-0.2-0.5-0.7-0.8-1.2-0.8c-0.2,0-0.4,0-0.5,0.1C-4.9,30.6,6.7,68.2,6.9,68.6c0.2,0.7,1,1.1,1.6,0.8  c0.3-0.1,0.6-0.3,0.8-0.6c0.2-0.3,0.2-0.7,0.1-1c0-0.1-2.9-9-1.3-19.8c2-14.4,10.5-24.9,25.2-31.3C33.9,16.4,34.2,15.7,33.9,15z"/><path d="M67.8,14.3c-0.2-0.1-0.3-0.1-0.5-0.1c-0.2,0-0.3,0-0.5,0.1c-0.3,0.1-0.6,0.4-0.7,0.7s-0.1,0.7,0,1  c0.1,0.3,0.4,0.6,0.7,0.7C101.7,32,91.2,66.4,90.7,67.8c-0.2,0.7,0.2,1.4,0.8,1.6c0.7,0.2,1.4-0.2,1.6-0.8  C93.3,68.2,105,30.6,67.8,14.3z"/><path d="M66.9,93.2c-18.2,7.7-33.1,0.1-33.3,0c-0.2-0.1-0.4-0.1-0.6-0.1c-0.1,0-0.3,0-0.4,0.1  c-0.3,0.1-0.6,0.3-0.8,0.6c-0.2,0.3-0.2,0.7-0.1,1c0.1,0.3,0.3,0.6,0.6,0.8c0.3,0.2,7.3,3.7,17.6,3.7c6.1,0,12.1-1.2,17.9-3.7  c0.7-0.3,1-1,0.7-1.7C68.4,93.2,67.6,92.9,66.9,93.2z"/><path d="M40.1,41.7V68c0,0.6,0.4,1.1,0.9,1.3c0.6,0.2,1.3,0.2,1.8-0.2L62,56.1c0.4-0.3,0.7-0.7,0.7-1.2c0-0.5-0.2-0.9-0.7-1.2  L42.8,40.6c-0.3-0.2-0.7-0.3-1-0.3c-0.3,0-0.5,0-0.7,0.2C40.4,40.7,40.1,41.2,40.1,41.7z M43.4,44.8l14.8,10.1L43.4,65V44.8z"/></svg>