<svg xmlns="http://www.w3.org/2000/svg" xmlns:xlink="http://www.w3.org/1999/xlink" version="1.1" x="0px" y="0px" viewBox="0 0 128 160" style="enable-background:new 0 0 128 128;" xml:space="preserve"><g><g><path d="M64,124.5C30.641,124.5,3.5,97.359,3.5,64S30.641,3.5,64,3.5s60.5,27.141,60.5,60.5S97.359,124.5,64,124.5z M64,5.5    C31.743,5.5,5.5,31.743,5.5,64s26.243,58.5,58.5,58.5s58.5-26.243,58.5-58.5S96.257,5.5,64,5.5z"/><g><g><g><g><path d="M63.511,84.857c-16.511,0-29.942-13.383-29.942-29.833S47,25.191,63.511,25.191s29.942,13.383,29.942,29.833        S80.021,84.857,63.511,84.857z M63.511,27.191c-15.407,0-27.942,12.485-27.942,27.833s12.535,27.833,27.942,27.833        s27.942-12.485,27.942-27.833S78.918,27.191,63.511,27.191z"/></g><g><line x1="80.747" y1="77.327" x2="94.442" y2="91.458"/><rect x="86.595" y="74.553" transform="matrix(0.7181 -0.696 0.696 0.7181 -34.0392 84.7533)" width="2" height="19.678"/></g><path d="M101.178,102.809c-0.015,0-0.03,0-0.046,0c-0.943-0.012-1.824-0.389-2.479-1.062l-5.909-6.063       c-1.358-1.394-1.33-3.631,0.063-4.987l1.152-1.125c1.393-1.356,3.629-1.328,4.986,0.063l5.909,6.063       c1.356,1.393,1.329,3.63-0.063,4.988l-1.152,1.124C102.978,102.455,102.104,102.809,101.178,102.809z M96.42,90.57       c-0.385,0-0.77,0.144-1.065,0.433l-1.152,1.125c-0.29,0.283-0.452,0.664-0.458,1.073c-0.005,0.41,0.148,0.796,0.431,1.086       l5.909,6.063c0.283,0.29,0.664,0.453,1.073,0.458c0.404-0.001,0.795-0.148,1.085-0.431l1.152-1.124       c0.603-0.588,0.614-1.558,0.027-2.16l-5.909-6.063C97.214,90.724,96.816,90.57,96.42,90.57z"/></g><g><g><path d="M72.563,71.601c-0.553,0-1-0.447-1-1v-3.433c0-0.553,0.447-1,1-1s1,0.447,1,1v3.433        C73.563,71.153,73.116,71.601,72.563,71.601z"/></g><g><path d="M55.437,71.601c-0.553,0-1-0.447-1-1v-3.433c0-0.553,0.447-1,1-1s1,0.447,1,1v3.433        C56.437,71.153,55.989,71.601,55.437,71.601z"/></g><path d="M64,54.301c-6.273,0-11.377-5.071-11.377-11.306c0-6.233,5.104-11.305,11.377-11.305s11.377,5.071,11.377,11.305       C75.377,49.229,70.273,54.301,64,54.301z M64,33.69c-5.171,0-9.377,4.174-9.377,9.305s4.206,9.306,9.377,9.306       s9.377-4.175,9.377-9.306S69.171,33.69,64,33.69z"/></g></g><path d="M32.011,53.372c-5.189,0-9.411-4.128-9.411-9.202s4.222-9.202,9.411-9.202c3.162,0,6.095,1.542,7.846,4.126     c0.223,0.329,0.229,0.76,0.017,1.096c-2.292,3.617-3.686,7.601-4.142,11.84c-0.042,0.39-0.307,0.718-0.677,0.842     C34.061,53.203,33.037,53.372,32.011,53.372z M32.011,36.968c-4.087,0-7.411,3.23-7.411,7.202s3.324,7.202,7.411,7.202     c0.606,0,1.214-0.075,1.812-0.224c0.529-4.071,1.872-7.915,3.999-11.443C36.42,37.98,34.292,36.968,32.011,36.968z"/><path d="M95.989,53.372c-1.463,0-2.875-0.328-4.198-0.975c-0.304-0.148-0.512-0.441-0.553-0.777     c-0.463-3.785-1.676-7.368-3.606-10.651c-0.175-0.297-0.184-0.663-0.024-0.969c1.617-3.104,4.829-5.032,8.382-5.032     c5.189,0,9.411,4.128,9.411,9.202S101.179,53.372,95.989,53.372z M93.149,50.815c0.906,0.369,1.859,0.557,2.84,0.557     c4.087,0,7.411-3.23,7.411-7.202s-3.324-7.202-7.411-7.202c-2.622,0-5.005,1.324-6.344,3.49     C91.455,43.677,92.632,47.155,93.149,50.815z"/><g><path d="M36.986,67.574H18.629c-0.553,0-1-0.447-1-1v-4.667c0-5.533,3.322-10.443,8.464-12.508      c0.348-0.14,0.74-0.073,1.023,0.168c1.826,1.565,4.361,2.178,6.746,1.571c0.159-0.422,0.587-0.706,1.058-0.637      c0.547,0.067,0.937,0.566,0.869,1.113v0.003c-0.148,1.189-0.221,2.304-0.221,3.406c0,3.868,0.785,7.619,2.334,11.148      c0.136,0.309,0.105,0.666-0.079,0.948S37.324,67.574,36.986,67.574z M19.629,65.574h15.868c-1.28-3.369-1.929-6.911-1.929-10.55      c0-0.592,0.02-1.187,0.059-1.792c-2.576,0.446-5.25-0.207-7.317-1.75c-4.077,1.874-6.681,5.905-6.681,10.425V65.574z"/><path d="M34.915,51.636c-0.051,0-0.103-0.004-0.154-0.012c-0.494-0.077-0.847-0.502-0.847-0.986      c0-0.052,0.004-0.104,0.012-0.155c0.04-0.26,0.083-0.518,0.129-0.773c0.099-0.543,0.619-0.906,1.162-0.807      c0.483,0.088,0.822,0.509,0.822,0.982c0,0.06-0.005,0.12-0.016,0.18c-0.044,0.24-0.083,0.482-0.121,0.725      C35.825,51.283,35.399,51.636,34.915,51.636z"/></g><g><path d="M109.371,67.574H90.035c-0.338,0-0.652-0.171-0.837-0.453s-0.215-0.64-0.079-0.948c1.549-3.529,2.334-7.28,2.334-11.148      c0-1.135-0.078-2.318-0.232-3.518l0.01-0.001c-0.006-0.508,0.358-0.995,0.867-1.059c0.338-0.042,0.66,0.068,0.869,0.291      c2.609,1.145,5.769,0.671,7.917-1.171c0.284-0.241,0.679-0.308,1.023-0.168c5.142,2.064,8.464,6.975,8.464,12.508v4.667      C110.371,67.127,109.924,67.574,109.371,67.574z M91.524,65.574h16.847v-3.667c0-4.52-2.604-8.551-6.681-10.425      c-2.346,1.751-5.508,2.326-8.311,1.526c0.049,0.683,0.073,1.356,0.073,2.016C93.453,58.663,92.805,62.205,91.524,65.574z"/><path d="M92.054,51.32c-0.48,0-0.904-0.348-0.985-0.837l-0.061-0.38c-0.01-0.059-0.015-0.116-0.015-0.173      c0-0.477,0.342-0.899,0.828-0.984c0.551-0.094,1.063,0.271,1.157,0.813l0.063,0.404c0.086,0.544-0.284,1.056-0.828,1.144      C92.16,51.316,92.106,51.32,92.054,51.32z"/></g><path d="M80.509,72.671H47.491c-0.553,0-1-0.447-1-1v-6.146c0-6.835,4.318-13.016,10.746-15.38     c0.325-0.119,0.69-0.062,0.962,0.151c1.674,1.311,3.68,2.004,5.801,2.004s4.127-0.693,5.801-2.004     c0.271-0.213,0.638-0.27,0.962-0.151c6.428,2.364,10.746,8.545,10.746,15.38v6.146C81.509,72.224,81.062,72.671,80.509,72.671z      M48.491,70.671h31.018v-5.146c0-5.822-3.57-11.104-8.938-13.309c-1.932,1.365-4.191,2.084-6.57,2.084s-4.639-0.719-6.57-2.084     c-5.368,2.205-8.938,7.486-8.938,13.309V70.671z"/></g></g></g></svg>