<svg xmlns="http://www.w3.org/2000/svg" xmlns:xlink="http://www.w3.org/1999/xlink" version="1.1" x="0px" y="0px" viewBox="0 0 128 160" style="enable-background:new 0 0 128 128;" xml:space="preserve"><path d="M102,83.1737976v-44.402298C102,36.5517998,100.2001953,35,98,35H30c-2.2001991,0-4,1.5517998-4,3.7714996v44.402298  C26,85.3936005,27.7998009,86,30,86h29v5h-4c-0.5522003,0-1,0.4423981-1,1s0.4477997,1,1,1h18c0.5522003,0,1-0.4423981,1-1  s-0.4477997-1-1-1h-4v-5h29C100.2001953,86,102,85.3936005,102,83.1737976z M28,38.7714996C28,37.6591988,28.8969994,37,30,37h68  c1.1029968,0,2,0.6591988,2,1.7714996V78H79v-0.9941025c0-5.5478973-2.9770966-10.2363968-7.3999023-12.5186005  c-0.4652939,0.5488052-0.9897003,1.0429993-1.5600967,1.4824066C74.169899,67.7822037,77,71.9862976,77,77.0058975V78H51v-0.9941025  c0-5.0195999,2.8296013-9.2256012,6.9589996-11.0381012c-0.5703011-0.4384995-1.0946999-0.9325943-1.5596008-1.4814987  C51.9766006,66.7686005,49,71.4570007,49,77.0058975V78H28V38.7714996z M67,91h-6v-5h6V91z M30,84  c-1.1030006,0-2,0.2861023-2-0.8262024V80h72v3.1737976C100,84.2861023,99.1029968,84,98,84H30z"/><path d="M64,66.017601c4.4160004,0,8-3.6142998,8-8.0723s-3.5839996-8.0732002-8-8.0732002s-8,3.6152-8,8.0732002  S59.5839996,66.017601,64,66.017601z M64,51.8905983c3.3086014,0,6,2.7158012,6,6.0547028C70,61.2841988,67.3086014,64,64,64  s-6-2.7158012-6-6.0546989C58,54.6063995,60.6913986,51.8905983,64,51.8905983z"/><path d="M15,111.4297028c2.7602997,0,5-2.2598038,5-5.0469055c0-2.7850952-2.2397003-5.044899-5-5.044899s-5,2.2598038-5,5.044899  C10,109.169899,12.2397003,111.4297028,15,111.4297028z M15,103.3563995c1.6543007,0,3,1.3574982,3,3.0263977  c0,1.6690063-1.3456993,3.0283051-3,3.0283051s-3-1.3592987-3-3.0283051C12,104.7138977,13.3457003,103.3563995,15,103.3563995z"/><path d="M1.74023,26.1436005L13.2598,32.7313995c0.4785004,0.2735023,1.1092997,0.410202,1.7402,0.410202  s1.2616997-0.1366997,1.7402-0.410202L28.2598,26.1436005C29.2168007,25.5967007,30,24.2402,30,23.1299V10.0116997  c0-1.1103001-0.7831993-2.4657998-1.7402-3.0136995L16.7402,0.4111C16.2616997,0.1367,15.6309004,0,15,0  s-1.2616997,0.1367-1.7402,0.4111L1.74023,6.9980001C0.783203,7.5458999,0,8.9013996,0,10.0116997V23.1299  C0,24.2402,0.783203,25.5967007,1.74023,26.1436005z M19.9839001,28.5566006l-2.1963005-3.6357002l1.7656002-1.017601  l2.198801,3.642601L19.9839001,28.5566006z M2,10.0116997c0-0.3856993,0.3940401-1.0674,0.7260699-1.2578001l11.5205307-6.5878997  C14.3754997,2.0918,14.6582003,2.0176001,15,2.0176001s0.6245003,0.0741999,0.7544003,0.1494l11.5184994,6.5859003  C27.6060009,8.9442997,28,9.6260004,28,10.0116997V23.1299c0,0.3857002-0.3939991,1.0674-0.7261009,1.2577991l-3.7806988,2.1621017  l-2.7378006-4.5332012c-0.2812996-0.4657993-0.8794003-0.625-1.3495998-0.3505993l-0.907299,0.5224991l-0.8696003-1.4394989  c2.4356003-1.9531002,3.1220989-5.3955002,1.4667988-8.1279001c-1.2138996-2.0020008-3.3788996-3.1152-5.6015997-3.1143007  c-1.1253996,0-2.2660999,0.2862005-3.3045998,0.8858004C7.1001,12.1787004,6.0791001,16.0732002,7.9077101,19.0879002  c1.2143602,2.0018997,3.3783903,3.1133003,5.60009,3.1133003c0.8017998,0,1.6089001-0.1504002,2.3832998-0.4512005  l0.8691998,1.4395008l-0.8579998,0.4940987c-0.2348003,0.1348-0.4052,0.3593998-0.4726,0.6230011  c-0.0674,0.2646999-0.0263996,0.5459003,0.1141996,0.7773991l2.698801,4.4678001l-2.4893007,1.4237995  C15.6245003,31.0498009,15.3417997,31.1229992,15,31.1229992s-0.6245003-0.0731983-0.7544003-0.1483994L2.7270501,24.3887005  C2.3940401,24.1973,2,23.5156002,2,23.1299V10.0116997z M15.8188,19.5645008  c-0.7005997,0.4061985-1.5,0.6190987-2.3109999,0.6190987c-1.5976,0-3.0903006-0.8223-3.8940306-2.1474991  c-0.5903292-0.9745998-0.7622099-2.1122999-0.4843798-3.2080002c0.2871103-1.1308002,1.0166101-2.0840006,2.0547104-2.6844997  c0.7002001-0.4043007,1.4989996-0.6192007,2.3105001-0.6192007c1.5981998,0,3.0907993,0.8252001,3.8950005,2.1494007  c0.5903988,0.9736996,0.7622986,2.1142998,0.4839001,3.2079992C17.5863991,18.0126991,16.8568993,18.9647999,15.8188,19.5645008z"/><path d="M126.2597961,6.9980001L114.7401962,0.4111C114.2616959,0.1367,113.6308975,0,113,0  c-0.6309052,0-1.2617035,0.1367-1.7402039,0.4111L99.7401962,6.9980001C98.7832031,7.5458999,98,8.9013996,98,10.0116997V23.1299  c0,1.1103001,0.7832031,2.4668007,1.7401962,3.0137005l11.5195999,6.5877991  c0.4785004,0.2735023,1.1092987,0.410202,1.7402039,0.410202c0.6308975,0,1.2616959-0.1366997,1.7401962-0.410202  l11.5195999-6.5877991C127.2167969,25.5967007,128,24.2402,128,23.1299V10.0116997  C128,8.9013996,127.2167969,7.5458999,126.2597961,6.9980001z M126,23.1299c0,0.3857002-0.3939972,1.0674-0.7261047,1.2577991  l-11.5205002,6.5879002c-0.1288986,0.0742016-0.4115982,0.1473999-0.7533951,0.1473999  c-0.3418045,0-0.6245041-0.0731983-0.7544022-0.1483994l-11.5185013-6.5858994C100.3939972,24.1973,100,23.5156002,100,23.1299  V10.0116997c0-0.3856993,0.3939972-1.0674,0.7260971-1.2578001l11.5205002-6.5878997  C112.3754959,2.0918,112.6581955,2.0176001,113,2.0176001c0.3417969,0,0.6244965,0.0741999,0.7543945,0.1494l11.5185013,6.5859003  C125.6060028,8.9442997,126,9.6260004,126,10.0116997V23.1299z"/><path d="M1.74023,121.0019989L13.2598,127.5888977C13.7383003,127.8632965,14.3690996,128,15,128  s1.2616997-0.1367035,1.7402-0.4111023L28.2598,121.0019989C29.2168007,120.4541016,30,119.0986023,30,117.9882965v-13.1181946  c0-1.1102982-0.7831993-2.4668045-1.7402-3.0137024L16.7402,95.2686005c-0.4785004-0.2734985-1.1092997-0.410202-1.7402-0.410202  s-1.2616997,0.1367035-1.7402,0.410202L1.74023,101.8563995C0.783203,102.4032974,0,103.7598038,0,104.8701019v13.1181946  C0,119.0986023,0.783203,120.4541016,1.74023,121.0019989z M2,104.8701019c0-0.385704,0.3940401-1.0674057,0.7260699-1.2578049  l11.5205307-6.5878983C14.3754997,96.9502029,14.6582003,96.8769989,15,96.8769989s0.6245003,0.073204,0.7544003,0.1483994  l11.5184994,6.5858994C27.6060009,103.8026962,28,104.4843979,28,104.8701019v13.1181946  c0,0.385704-0.3939991,1.0674057-0.7261009,1.2578049L26,119.9746017v-0.8086014  c0-4.0253983-1.9550991-7.4608994-4.9130993-9.3076019c-0.3334999,0.592804-0.7490005,1.1317978-1.2314014,1.6016006  C22.3437996,112.9247971,24,115.7938995,24,119.1660004v1.9522018l-8.2466002,4.7157974  C15.6245003,125.9082031,15.3417997,125.982399,15,125.982399s-0.6245003-0.0741959-0.7544003-0.1493988L6,121.1182022v-1.9522018  c0-3.3730011,1.65625-6.2422028,4.1440001-7.7070007c-0.4828701-0.4688034-0.8979101-1.0087967-1.2318897-1.6016006  C5.9545898,111.705101,4,115.1396027,4,119.1660004v0.8096008l-1.2729499-0.7285004  C2.3940401,119.0557022,2,118.3740005,2,117.9882965V104.8701019z"/><path d="M126.2597961,101.8563995l-11.5195999-6.5877991c-0.4785004-0.2734985-1.1092987-0.410202-1.7401962-0.410202  c-0.6309052,0-1.2617035,0.1367035-1.7402039,0.410202l-11.5195999,6.5877991C98.7832031,102.4032974,98,103.7598038,98,104.8701019  v13.1181946c0,1.1103058,0.7832031,2.4658051,1.7401962,3.0137024l11.5195999,6.5868988  C111.7382965,127.8632965,112.3690948,128,113,128c0.6308975,0,1.2616959-0.1367035,1.7401962-0.4111023l11.5195999-6.5868988  C127.2167969,120.4541016,128,119.0986023,128,117.9882965v-13.1181946  C128,103.7598038,127.2167969,102.4032974,126.2597961,101.8563995z M126,117.9882965  c0,0.385704-0.3939972,1.0674057-0.7261047,1.2578049l-11.5205002,6.5878983  c-0.1288986,0.0742035-0.4115982,0.1483994-0.7533951,0.1483994c-0.3418045,0-0.6245041-0.0741959-0.7544022-0.1493988  l-11.5185013-6.5858994C100.3939972,119.0557022,100,118.3740005,100,117.9882965v-13.1181946  c0-0.385704,0.3939972-1.0674057,0.7260971-1.2578049l11.5205002-6.5878983  c0.1288986-0.0741959,0.4115982-0.1473999,0.7534027-0.1473999c0.3417969,0,0.6244965,0.073204,0.7543945,0.1483994  l11.5185013,6.5858994C125.6060028,103.8026962,126,104.4843979,126,104.8701019V117.9882965z"/><path d="M113.1850967,7.4931998c-0.0679016-0.0019999-0.1368027-0.0039001-0.2050934-0.0039001  c-1.4087067,0-2.8999023,0.5019002-3.9815063,1.5166006c-1.6849976,1.5790997-2.2547989,3.9277-1.8955002,6.2147999  c0.3018036,1.9189005,1.8384018,3.2294989,2.4301987,5.0185995c0.2466049,0.7402,0.2681046,1.5741997,0.2593002,2.387701  c-0.0028992,0.2684994,0.1025009,0.5106983,0.2710037,0.6913986C110.0298004,23.4199009,110,23.5224991,110,23.6348  c0,1.6699009,1.3456955,3.0272999,3,3.0272999c1.6542969,0,3-1.357399,3-3.0272999c0-0.1142998-0.1348038-0.219799-0.1699066-0.3223  C115.9980011,23.1317997,116,22.8936005,116,22.6270008c0-0.5195999,0-1.0459003,0-1.0469017  c0-1.7431984,1.4325943-3.0741997,2.1405945-4.5351982c0.7998047-1.6523008,1.0454025-3.6513004,0.4897995-5.4170008  C117.8358994,9.1044998,115.5106964,7.5683999,113.1850967,7.4931998z M113,24.6436005c-0.5513,0-1-0.4521999-1-1.0088005h2  C114,24.1914005,113.5513,24.6436005,113,24.6436005z M116.4487,16.1592007c-0.1674042,0.3446999-0.5112,0.722599-0.7640991,1.125  C114.9804993,18.3964996,114,19.7842007,114,21.5800991V21h-2.2236023c-0.033699-1-0.125-1.0429993-0.346199-1.7089996  c-0.3359985-1.0156002-0.8701019-1.7021008-1.3418045-2.4463005c-0.4853973-0.7656002-0.9052963-1.3506002-1.0102997-2.0185003  c-0.2798004-1.7831993,0.1870041-3.6103992,1.2823029-4.6357994C111.0121994,9.5790997,111.9916992,9,112.9800034,9h0.1405945  c1.3612976,0,3.0858994,1.1729002,3.6562958,2.9843998C117.1641006,13.2147999,117.0414963,14.9345999,116.4487,16.1592007z"/><path d="M116,107.8964996c0-2.2285004-1.7910004-4.035202-4-4.035202s-4,1.8067017-4,4.035202  c0,0.3563995,0.0600967,0.6952972,0.1460037,1.0243988c-0.0498047-0.0009995-0.0962067-0.0136948-0.1460037-0.0136948  c-2.7612,0-5,2.2577972-5,5.044899c0,2.7872009,2.2388,5.0458984,5,5.0458984s5-2.2586975,5-5.0458984  c0-0.7412033-0.1675034-1.4403992-0.4521027-2.0742035C114.4950943,111.6063995,116,109.9375,116,107.8964996z M108,116.9794998  c-1.6543045,0-3-1.3583984-3-3.0273972c0-1.6688995,1.3456955-3.0273056,3-3.0273056c1.6542969,0,3,1.3584061,3,3.0273056  C111,115.6211014,109.6542969,116.9794998,108,116.9794998z M112,109.9160004c-1.1029968,0-2-0.9061966-2-2.0195007  c0-1.1112976,0.8970032-2.017601,2-2.017601s2,0.9063034,2,2.017601C114,109.0098038,113.1029968,109.9160004,112,109.9160004z"/><path d="M119.8945007,109.9688034c-0.3388062-0.6836014-1.4502029-0.6836014-1.7890015,0l-4,8.0731964  c-0.1548004,0.3125-0.1381989,0.4316025,0.0438995,0.7294998C114.3314972,119.0692978,114.6532974,119,115,119h8  c0.0067978,0,0.0136948,0,0.0199966,0c0.5522995,0,1-0.2002029,1-0.7577972c0-0.2304993-0.0765991-0.3184052-0.2059937-0.4883041  L119.8945007,109.9688034z M116.6181946,117L119,112.1923981L121.3817978,117H116.6181946z"/><path d="M12.8105001,117.5322037c0.0634995-0.2197037,0.0464001-0.4297028-0.0497999-0.6318054  c-0.0960999-0.2022018-0.2417002-0.3368988-0.4345007-0.4042969c-0.1933994-0.0663986-0.3783998-0.0458984-0.5571995,0.0634995  l-2.4286699,1.4628983c-0.1040001,0.0605011-0.1860304,0.1572037-0.24512,0.2910004  c-0.0595703,0.134697-0.0913,0.277298-0.0947199,0.4297028c-0.0039101,0.1503983,0.0219698,0.2958984,0.0776396,0.4355011  c0.0561504,0.1376953,0.1435499,0.2421951,0.2622004,0.3085938l2.4286699,1.4522018  c0.1787996,0.1083984,0.3638,0.1297989,0.5571995,0.0615005c0.1928005-0.0654984,0.3384008-0.2012024,0.4345007-0.4023972  c0.0962-0.2031021,0.1132994-0.4121017,0.0497999-0.6318054c-0.0629005-0.2177963-0.1835003-0.3827972-0.3613005-0.4921951  l-1.2035999-0.7197037l1.2035999-0.732399C12.6269999,117.9150009,12.7475996,117.75,12.8105001,117.5322037z"/><path d="M16.1142998,114.5028992c-0.1928997-0.0760956-0.3843002-0.0586014-0.5738001,0.0508041  c-0.1893997,0.1093979-0.3139,0.2763977-0.3730001,0.5048981L13.3848,121.4188995  c-0.0600996,0.2343979-0.0410004,0.455101,0.0556002,0.6622009c0.0962,0.2060013,0.2446995,0.3436966,0.4457998,0.4090958  c0.1928997,0.0684052,0.3818998,0.0469055,0.5678997-0.0614929c0.1855001-0.1113052,0.3081007-0.2744064,0.3677006-0.4932022  l1.7826996-6.3730011c0.0591011-0.2186966,0.0405006-0.4326019-0.0557003-0.6436005  C16.4521008,114.7089996,16.3076,114.5692978,16.1142998,114.5028992z"/><path d="M17.6742992,116.4961014c-0.1932983,0.0673981-0.3383999,0.202095-0.4345989,0.4042969  c-0.0965996,0.2021027-0.1137009,0.4121017-0.0501995,0.6318054c0.0628986,0.2177963,0.1834984,0.3827972,0.3617992,0.4902954  l1.2035999,0.732399L17.5513,119.4746017c-0.1783009,0.1093979-0.2989006,0.2743988-0.3617992,0.4921951  c-0.0635014,0.2197037-0.0464001,0.4287033,0.0501995,0.6318054c0.096199,0.2011948,0.2413006,0.3368988,0.4345989,0.4023972  c0.1929016,0.0682983,0.3784008,0.0468979,0.5567017-0.0615005l2.4291992-1.4522018  c0.1185989-0.0663986,0.2059994-0.1708984,0.2616997-0.3085938c0.0556011-0.1396027,0.0820007-0.2851028,0.0776005-0.4355011  c-0.0034008-0.1524048-0.0351009-0.2950058-0.0942001-0.4297028c-0.0596008-0.1337967-0.1415997-0.2304993-0.2451-0.2910004  l-2.4291992-1.4628983C18.0527,116.4502029,17.8672009,116.4297028,17.6742992,116.4961014z"/><ellipse cx="13.5015001" cy="15.8544998" rx="1" ry="1.0088"/><path d="M43,62h-4c-0.5522003,0-1,0.4434013-1,1c0,0.5586014,0.4477997,1,1,1h4c0.5522003,0,1-0.4413986,1-1  C44,62.4434013,43.5522003,62,43,62z"/><path d="M43,58H33c-0.5522003,0-1,0.4434013-1,1c0,0.5586014,0.4477997,1,1,1h10c0.5522003,0,1-0.4413986,1-1  C44,58.4434013,43.5522003,58,43,58z"/><path d="M43,54h-4c-0.5522003,0-1,0.4434013-1,1c0,0.5586014,0.4477997,1,1,1h4c0.5522003,0,1-0.4413986,1-1  C44,54.4434013,43.5522003,54,43,54z"/><path d="M85,64h4c0.5522003,0,1-0.4413986,1-1c0-0.5565987-0.4477997-1-1-1h-4c-0.5522003,0-1,0.4434013-1,1  C84,63.5586014,84.4477997,64,85,64z"/><path d="M85,60h10c0.5522003,0,1-0.4413986,1-1c0-0.5565987-0.4477997-1-1-1H85c-0.5522003,0-1,0.4434013-1,1  C84,59.5586014,84.4477997,60,85,60z"/><path d="M85,56h4c0.5522003,0,1-0.4413986,1-1c0-0.5565987-0.4477997-1-1-1h-4c-0.5522003,0-1,0.4434013-1,1  C84,55.5586014,84.4477997,56,85,56z"/><path d="M87,15H41c-0.5522003,0-1,0.4424-1,1s0.4477997,1,1,1h46c0.5522003,0,1-0.4424,1-1S87.5522003,15,87,15z"/><path d="M72,13c0.5522003,0,1-0.4424,1-1s-0.4477997-1-1-1H55c-0.5522003,0-1,0.4424-1,1s0.4477997,1,1,1H72z"/><ellipse cx="76" cy="12.5346746" rx="1.0000001" ry="1.00975"/><ellipse cx="51" cy="12.5346746" rx="1.0000001" ry="1.00975"/><path d="M72,21c0.5522003,0,1-0.4424,1-1s-0.4477997-1-1-1H55c-0.5522003,0-1,0.4424-1,1s0.4477997,1,1,1H72z"/><ellipse cx="76" cy="20.6074009" rx="1" ry="1.0088"/><ellipse cx="51" cy="20.6074009" rx="1" ry="1.0088"/><path d="M88,111c0-0.5566025-0.4477997-1-1-1H41c-0.5522003,0-1,0.4433975-1,1c0,0.5586014,0.4477997,1,1,1h46  C87.5522003,112,88,111.5586014,88,111z"/><path d="M72,108c0.5522003,0,1-0.4413986,1-1c0-0.5566025-0.4477997-1-1-1H55c-0.5522003,0-1,0.4433975-1,1  c0,0.5586014,0.4477997,1,1,1H72z"/><ellipse cx="76" cy="107.392601" rx="1" ry="1.0088"/><ellipse cx="51" cy="107.392601" rx="1" ry="1.0088"/><path d="M55,114c-0.5522003,0-1,0.4433975-1,1c0,0.5586014,0.4477997,1,1,1h17c0.5522003,0,1-0.4413986,1-1  c0-0.5566025-0.4477997-1-1-1H55z"/><ellipse cx="76" cy="115.4653244" rx="1.0000001" ry="1.00975"/><ellipse cx="51" cy="115.4653244" rx="1.0000001" ry="1.00975"/><path d="M14,40.7900009v46.4199982c0,0.5576019,0.4477997,1.0097046,1,1.0097046s1-0.4521027,1-1.0097046V40.7900009  c0-0.5576019-0.4477997-1.0097008-1-1.0097008S14,40.232399,14,40.7900009z"/><path d="M20,54.9179993c0-0.5575981-0.4477997-1.0088005-1-1.0088005s-1,0.4512024-1,1.0088005v17.1551971  c0,0.5577011,0.4477997,1.0088043,1,1.0088043s1-0.4511032,1-1.0088043V54.9179993z"/><ellipse cx="19" cy="76.1096268" rx="1" ry="1.00925"/><ellipse cx="19" cy="50.8811264" rx="1" ry="1.00925"/><path d="M12,54.9179993c0-0.5575981-0.4477997-1.0088005-1-1.0088005s-1,0.4512024-1,1.0088005v17.1551971  c0,0.5577011,0.4477997,1.0088043,1,1.0088043s1-0.4511032,1-1.0088043V54.9179993z"/><ellipse cx="11" cy="76.1096268" rx="1" ry="1.00925"/><ellipse cx="11" cy="50.8811264" rx="1" ry="1.00925"/><path d="M114,87.2099991V40.7900009c0-0.5576019-0.4477997-1.0097008-1-1.0097008s-1,0.4520988-1,1.0097008v46.4199982  c0,0.5576019,0.4477997,1.0097046,1,1.0097046S114,87.767601,114,87.2099991z"/><path d="M116,72.0731964c0,0.5577011,0.4477997,1.0088043,1,1.0088043s1-0.4511032,1-1.0088043V54.9179993  c0-0.5575981-0.4477997-1.0088005-1-1.0088005s-1,0.4512024-1,1.0088005V72.0731964z"/><ellipse cx="117" cy="76.1096268" rx="1" ry="1.00925"/><ellipse cx="117" cy="50.8811264" rx="1" ry="1.00925"/><path d="M108,72.0731964c0,0.5577011,0.4477997,1.0088043,1,1.0088043s1-0.4511032,1-1.0088043V54.9179993  c0-0.5575981-0.4477997-1.0088005-1-1.0088005s-1,0.4512024-1,1.0088005V72.0731964z"/><ellipse cx="109" cy="76.1096268" rx="1" ry="1.00925"/><ellipse cx="109" cy="50.8811264" rx="1" ry="1.00925"/></svg>